<svg width="200" height="200" viewBox="0 0 200 200" fill="none" xmlns="http://www.w3.org/2000/svg">
<path d="M100 8.33331C81.87 8.33331 64.1472 13.7095 49.0727 23.7819C33.9982 33.8544 22.2491 48.1708 15.311 64.9207C8.37301 81.6706 6.5577 100.102 10.0947 117.883C13.6317 135.665 22.3621 151.998 35.1819 164.818C48.0017 177.638 64.3351 186.368 82.1167 189.905C99.8983 193.442 118.329 191.627 135.079 184.689C151.829 177.751 166.146 166.002 176.218 150.927C186.291 135.853 191.667 118.13 191.667 100C191.667 75.6885 182.009 52.3727 164.818 35.1819C147.627 17.991 124.312 8.33331 100 8.33331ZM45.8333 100C45.8333 102.21 44.9554 104.33 43.3926 105.893C41.8297 107.455 39.7101 108.333 37.5 108.333C35.2899 108.333 33.1702 107.455 31.6074 105.893C30.0446 104.33 29.1667 102.21 29.1667 100C29.1887 81.2206 36.6586 63.2167 49.9376 49.9376C63.2167 36.6586 81.2206 29.1887 100 29.1666C102.21 29.1666 104.33 30.0446 105.893 31.6074C107.455 33.1702 108.333 35.2898 108.333 37.5C108.333 39.7101 107.455 41.8297 105.893 43.3925C104.33 44.9553 102.21 45.8333 100 45.8333C85.6409 45.8554 71.8762 51.5693 61.7227 61.7227C51.5693 71.8762 45.8554 85.6409 45.8333 100ZM66.6667 100C66.6667 93.4073 68.6216 86.9626 72.2843 81.481C75.9471 75.9993 81.153 71.7269 87.2439 69.204C93.3347 66.6811 100.037 66.021 106.503 67.3071C112.969 68.5933 118.908 71.768 123.57 76.4298C128.232 81.0915 131.407 87.0309 132.693 93.497C133.979 99.963 133.319 106.665 130.796 112.756C128.273 118.847 124.001 124.053 118.519 127.716C113.037 131.378 106.593 133.333 100 133.333C91.1594 133.333 82.681 129.821 76.4298 123.57C70.1786 117.319 66.6667 108.841 66.6667 100ZM100 170.833C97.7899 170.833 95.6702 169.955 94.1074 168.393C92.5446 166.83 91.6667 164.71 91.6667 162.5C91.6667 160.29 92.5446 158.17 94.1074 156.607C95.6702 155.045 97.7899 154.167 100 154.167C114.359 154.145 128.124 148.431 138.277 138.277C148.431 128.124 154.145 114.359 154.167 100C154.167 97.7898 155.045 95.6702 156.607 94.1074C158.17 92.5446 160.29 91.6667 162.5 91.6667C164.71 91.6667 166.83 92.5446 168.393 94.1074C169.955 95.6702 170.833 97.7898 170.833 100C170.811 118.779 163.341 136.783 150.062 150.062C136.783 163.341 118.779 170.811 100 170.833Z" fill="#6E6E6E"/>
<path d="M100 116.667C109.205 116.667 116.667 109.205 116.667 100C116.667 90.7952 109.205 83.3333 100 83.3333C90.7953 83.3333 83.3333 90.7952 83.3333 100C83.3333 109.205 90.7953 116.667 100 116.667Z" fill="#6E6E6E"/>
</svg>
