<svg width="350" height="350" viewBox="0 0 350 350" fill="none" xmlns="http://www.w3.org/2000/svg">
<path d="M175 14.5833C143.273 14.5833 112.258 23.9916 85.8773 41.6184C59.4969 59.2452 38.9359 84.2989 26.7943 113.611C14.6528 142.923 11.476 175.178 17.6657 206.296C23.8554 237.414 39.1336 265.997 61.5683 288.432C84.003 310.866 112.586 326.145 143.704 332.334C174.822 338.524 207.076 335.347 236.389 323.206C265.701 311.064 290.755 290.503 308.382 264.123C326.008 237.742 335.417 206.727 335.417 175C335.417 132.455 318.516 91.6522 288.432 61.5683C258.348 31.4843 217.545 14.5833 175 14.5833ZM80.2083 175C80.2083 178.868 78.6719 182.577 75.937 185.312C73.2021 188.047 69.4927 189.583 65.625 189.583C61.7573 189.583 58.0479 188.047 55.313 185.312C52.5781 182.577 51.0417 178.868 51.0417 175C51.0803 142.136 64.1525 110.629 87.3908 87.3908C110.629 64.1525 142.136 51.0802 175 51.0416C178.868 51.0416 182.577 52.5781 185.312 55.313C188.047 58.0479 189.583 61.7572 189.583 65.625C189.583 69.4927 188.047 73.202 185.312 75.937C182.577 78.6719 178.868 80.2083 175 80.2083C149.872 80.2469 125.783 90.2462 108.015 108.015C90.2462 125.783 80.2469 149.872 80.2083 175ZM116.667 175C116.667 163.463 120.088 152.185 126.498 142.592C132.907 132.999 142.018 125.522 152.677 121.107C163.336 116.692 175.065 115.537 186.38 117.788C197.696 120.038 208.09 125.594 216.248 133.752C224.406 141.91 229.962 152.304 232.212 163.62C234.463 174.935 233.308 186.664 228.893 197.323C224.478 207.982 217.001 217.093 207.408 223.502C197.815 229.912 186.537 233.333 175 233.333C159.529 233.333 144.692 227.188 133.752 216.248C122.812 205.308 116.667 190.471 116.667 175ZM175 298.958C171.132 298.958 167.423 297.422 164.688 294.687C161.953 291.952 160.417 288.243 160.417 284.375C160.417 280.507 161.953 276.798 164.688 274.063C167.423 271.328 171.132 269.792 175 269.792C200.128 269.753 224.217 259.754 241.985 241.985C259.754 224.217 269.753 200.128 269.792 175C269.792 171.132 271.328 167.423 274.063 164.688C276.798 161.953 280.507 160.417 284.375 160.417C288.243 160.417 291.952 161.953 294.687 164.688C297.422 167.423 298.958 171.132 298.958 175C298.92 207.864 285.847 239.371 262.609 262.609C239.371 285.847 207.864 298.92 175 298.958Z" fill="#F1F1F1"/>
<path d="M175 204.167C191.108 204.167 204.167 191.108 204.167 175C204.167 158.892 191.108 145.833 175 145.833C158.892 145.833 145.833 158.892 145.833 175C145.833 191.108 158.892 204.167 175 204.167Z" fill="#F1F1F1"/>
</svg>
